HIERARCHY
ROOT ui
{
	 OFFSET 0 0 0
	 CHANNELS 3 XPosition YPosition Z Position
	 EndSite
	 {
	 OFFSET 0 -1 0
	 }
}
ROOT li
{
	 OFFSET 0 0 0
	 CHANNELS 3 XPosition YPosition Z Position
	 EndSite
	 {
	 OFFSET 0 -1 0
	 }
}
ROOT ul
{
	 OFFSET 0 0 0
	 CHANNELS 3 XPosition YPosition Z Position
	 EndSite
	 {
	 OFFSET 0 -1 0
	 }
}
ROOT ll
{
	 OFFSET 0 0 0
	 CHANNELS 3 XPosition YPosition Z Position
	 EndSite
	 {
	 OFFSET 0 -1 0
	 }
}
ROOT tt
{
	 OFFSET 0 0 0
	 CHANNELS 3 XPosition YPosition Z Position
	 EndSite
	 {
	 OFFSET 0 -1 0
	 }
}
ROOT tb
{
	 OFFSET 0 0 0
	 CHANNELS 3 XPosition YPosition Z Position
	 EndSite
	 {
	 OFFSET 0 -1 0
	 }
}
ROOT td
{
	 OFFSET 0 0 0
	 CHANNELS 3 XPosition YPosition Z Position
	 EndSite
	 {
	 OFFSET 0 -1 0
	 }
}
ROOT v
{
	 OFFSET 0 0 0
	 CHANNELS 3 XPosition YPosition Z Position
	 EndSite
	 {
	 OFFSET 0 -1 0
	 }
}
ROOT bn
{
	 OFFSET 0 0 0
	 CHANNELS 3 XPosition YPosition Z Position
	 EndSite
	 {
	 OFFSET 0 -1 0
	 }
}
MOTION
Frames: 21
Frame Time: 0.002
0.002070204019546509	-4.7053399682044984E-4	0		0.440673828125	-2.322641357421875	0		-1.12102685546875	0.002158700942993164	0		-0.8020631713867188	-2.296131103515625	0		1.548967529296875	-0.5288167724609375	0		3.12334033203125	-0.071472900390625	0		4.5555654296875	0.059061973571777344	0		5.56509375	0.20315022277832032	0		-0.24724105834960938	5.97017822265625	0		
0.015835715293884278	0.011365102767944337	0		0.4710804748535156	-2.32210693359375	0		-1.1133551025390624	0.00817835521697998	0		-0.7965881958007812	-2.29110498046875	0		1.5515506591796875	-0.5259285888671875	0		3.112134765625	-0.05748940658569336	0		4.5612578125	0.06566515350341796	0		5.56354931640625	0.23196324157714843	0		-0.21508555603027343	5.97675048828125	0		
-0.0015335259437561034	0.013703234672546387	0		0.46844082641601564	-2.32504296875	0		-1.053829345703125	0.00338785195350647	0		-0.7653088989257812	-2.2994765625	0		1.548025146484375	-0.5309360961914062	0		3.103552734375	-0.06854344940185547	0		4.547765625	0.059572242736816404	0		5.56378662109375	0.20361154174804688	0		-0.11201782989501953	5.97520458984375	0		
0.007921638011932373	0.0036392269134521483	0		0.4378080444335937	-2.32850830078125	0		-1.1282049560546874	0.004746185779571533	0		-0.8038748168945312	-2.29871533203125	0		1.5445177001953125	-0.5359185180664062	0		3.10314599609375	-0.06969967651367187	0		4.54124267578125	0.05039616012573242	0		5.55707373046875	0.20152755737304687	0		-0.1129210433959961	5.97532373046875	0		
-0.009426977157592773	0.005038197040557861	0		0.46320687866210936	-2.3318310546875	0		-1.1285877685546875	0.003962285041809082	0		-0.816356689453125	-2.2943330078125	0		1.544092529296875	-0.536912109375	0		3.12949755859375	-0.08724594116210938	0		4.55595751953125	0.054926429748535156	0		5.56095654296875	0.18181147766113281	0		-0.21485427856445313	5.97409375	0		
-0.0057284669876098634	0.008142876625061034	0		0.4377491149902344	-2.327295654296875	0		-1.123034423828125	-0.0018797069787979126	0		-0.8029453735351563	-2.29832763671875	0		1.5467503662109374	-0.533908447265625	0		3.09749951171875	-0.06480101013183594	0		4.5377109375	0.06104065704345703	0		5.55943310546875	0.20566172790527343	0		-0.21476976013183594	5.97327880859375	0		
0.009873113632202148	0.004101497173309326	0		0.46826177978515626	-2.32661181640625	0		-1.1252371826171874	0.0064485340118408205	0		-0.8014268188476562	-2.297086181640625	0		1.546363525390625	-0.5348031005859375	0		3.107902587890625	-0.08098291015625	0		4.55525146484375	0.052641117095947265	0		5.55921240234375	0.20881503295898438	0		-0.26294146728515627	5.95728857421875	0		
-0.0033583118915557863	0.009579787254333496	0		0.43877664184570314	-2.326904296875	0		-1.1296319580078125	0.001859225034713745	0		-0.8039459838867188	-2.299730224609375	0		1.545996337890625	-0.5356394653320312	0		3.124856201171875	-0.06420372009277343	0		4.54394189453125	0.05277862548828125	0		5.55602392578125	0.19318023681640625	0		-0.11259490966796876	5.97213818359375	0		
-0.0036706979274749754	0.008904118537902832	0		0.4611976623535156	-2.334982177734375	0		-1.12994482421875	0.0012556140422821044	0		-0.8163230590820313	-2.29515966796875	0		1.5425843505859376	-0.5403648681640625	0		3.101379150390625	-0.07470342254638672	0		4.54974560546875	0.05871332550048828	0		5.5557939453125	0.19140541076660156	0		-0.23068939208984374	5.96239404296875	0		
-0.0012272230386734008	-0.00776178503036499	0		0.43479840087890625	-2.3332041015625	0		-1.13023974609375	7.043939828872681E-4	0		-0.8089207153320312	-2.305859375	0		1.5422568359375	-0.5410768432617188	0		3.10107958984375	-0.07550920104980469	0		4.548208984375	0.04283876800537109	0		5.54845751953125	0.1917775573730469	0		-0.22964215087890624	5.9607724609375	0		
-0.004240871906280518	0.007723033905029297	0		0.43747152709960935	-2.3288408203125	0		-1.1245987548828125	-0.004891633033752441	0		-0.8391759643554687	-2.296884521484375	0		1.54501513671875	-0.5377764282226563	0		3.144678466796875	-0.08396858978271485	0		4.552033203125	0.047952030181884764	0		5.56470361328125	0.1965350341796875	0		-0.24654518127441405	5.96250146484375	0		
0.012451645851135253	0.00393795108795166	0		0.4391232604980469	-2.3274033203125	0		-1.1167410888671876	0.001530122995376587	0		-0.801560302734375	-2.29797119140625	0		1.5508446044921875	-0.5314647216796875	0		3.099736572265625	-0.06490445709228515	0		4.55791015625	0.05510254669189453	0		5.55813232421875	0.2005976104736328	0		-0.2295172576904297	5.9597294921875	0		
0.005118413925170899	-0.002396459102630615	0		0.4616517028808594	-2.335254638671875	0		-1.1310074462890625	-6.322060227394104E-4	0		-0.8059771728515625	-2.302314208984375	0		1.5444676513671876	-0.5388931884765625	0		3.1002998046875	-0.07752606201171874	0		4.54946435546875	0.04155609130859375	0		5.557958984375	0.19934059143066407	0		-0.22945162963867188	5.959291015625	0		
-0.0049458761215209965	0.006371469020843506	0		0.46132635498046876	-2.3356728515625	0		-1.1253056640625	-0.006073500156402588	0		-0.8182164916992187	-2.29747412109375	0		1.5411617431640625	-0.5433124389648437	0		3.10008154296875	-0.07806928253173828	0		4.54925146484375	0.04094415283203125	0		5.554853515625	0.184482666015625	0		-0.11121767425537109	5.96794970703125	0		
-0.002406749963760376	-0.010020166397094727	0		0.4589944763183594	-2.338004150390625	0		-1.1354830322265625	-0.005201738834381103	0		-0.80863134765625	-2.304947265625	0		1.5409425048828125	-0.5437252197265625	0		3.130712646484375	-0.08906489562988282	0		4.54217529296875	0.04751282119750976	0		5.54759033203125	0.18548329162597657	0		-0.22931361389160157	5.9585712890625	0		
0.004531929016113281	-0.003431659936904907	0		0.433806396484375	-2.33290185546875	0		-1.125677734375	-0.006614424228668213	0		-0.8068717041015625	-2.30324072265625	0		1.543809326171875	-0.5401345825195313	0		3.0948203125	-0.07189360046386718	0		4.5461005859375	0.05296030044555664	0		5.56046240234375	0.20827554321289063	0		-0.21407508850097656	5.96803564453125	0		
-0.0024257280826568603	0.008438239097595215	0		0.43761981201171873	-2.329231689453125	0		-1.1217872314453126	-0.0038813090324401854	0		-0.8410518188476562	-2.298886474609375	0		1.5466951904296875	-0.5364924926757813	0		3.1036240234375	-0.07441333770751953	0		4.5569423828125	0.05234840774536133	0		5.55740966796875	0.1954768524169922	0		-0.22915814208984375	5.95805126953125	0		
-0.0025673160552978514	0.008241291046142579	0		0.4623161926269531	-2.333863525390625	0		-1.1318944091796874	-0.001867382049560547	0		-0.8073555297851562	-2.30361865234375	0		1.5434656982421875	-0.5406994018554687	0		3.119460205078125	-0.07599952697753906	0		4.5417041015625	0.04622457885742187	0		5.55435595703125	0.18104269409179688	0		-0.2432486572265625	5.9470986328125	0		
-0.005742558002471924	0.005141119003295899	0		0.46005044555664065	-2.33699853515625	0		-1.132020263671875	-0.0019747010469436644	0		-0.8096033325195312	-2.305704833984375	0		1.537420654296875	-0.5348102416992188	0		3.099267333984375	-0.07993498229980468	0		4.53259814453125	0.04704909133911133	0		5.547142578125	0.1824362335205078	0		-0.11177760314941407	5.96775732421875	0		
-0.005851638793945312	0.005032752990722656	0		0.43185498046875	-2.336654296875	0		-1.1302811279296876	-0.011071969032287597	0		-0.8098015747070313	-2.3057822265625	0		1.5401221923828126	-0.545027099609375	0		3.099155029296875	-0.08016310119628907	0		4.54147265625	0.04561457061767578	0		5.54706005859375	0.18188417053222655	0		-0.26193804931640624	5.9521767578125	0		
8.369410037994385E-4	-0.008154227256774902	0		0.43475540161132814	-2.33179345703125	0		-1.2022786865234374	-0.004886548995971679	0		-0.8439114990234375	-2.301249267578125	0		1.543076171875	-0.5412098388671875	0		3.1269384765625	-0.08782661437988282	0		4.54344970703125	0.04933085250854492	0		5.55702294921875	0.18790135192871094	0		-0.24566346740722655	5.95984521484375	0		
